# xmcd CD database file
#
# Track frame offsets:
#	150
#	43111
#	76990
#	101158
#	136667
#	149624
#	183124
#	227391
#
# Disc length: 3615 seconds
#
# Revision: 0
# Processed by: cddbd v1.5.2PL0 Copyright (c) Steve Scherf et al.
# Submitted via: CDex 1.70beta2
#
DISCID=610e1d08
DTITLE=Jason Rigby - The Sage
DYEAR=2008
DGENRE=Jazz
TTITLE0=Magenta
TTITLE1=Crux
TTITLE2=Shift of Color
TTITLE3=The Sage
TTITLE4=Tone Poem
TTITLE5=Slip
TTITLE6=The Archer
TTITLE7=Jealous Moon
EXTD=YEAR: 2008
EXTT0=
EXTT1=
EXTT2=
EXTT3=
EXTT4=
EXTT5=
EXTT6=
EXTT7=
PLAYORDER=
